<?xml version="1.0" standalone="no"?>
<!DOCTYPE svg PUBLIC "-//W3C//DTD SVG 20010904//EN"
 "http://www.w3.org/TR/2001/REC-SVG-20010904/DTD/svg10.dtd">
<svg version="1.0" xmlns="http://www.w3.org/2000/svg"
 width="360.000000pt" height="360.000000pt" viewBox="0 0 360.000000 360.000000"
 preserveAspectRatio="xMidYMid meet">
<metadata>
Created by potrace 1.16, written by Peter Selinger 2001-2019
</metadata>
<g transform="translate(0.000000,360.000000) scale(0.100000,-0.100000)"
fill="#000000" stroke="none">
<path d="M0 1800 l0 -1800 1800 0 1800 0 0 1800 0 1800 -1800 0 -1800 0 0
-1800z m2050 1516 c137 -29 235 -63 350 -119 91 -44 210 -118 230 -142 7 -8
17 -15 22 -15 27 0 211 -180 287 -280 96 -126 179 -270 216 -372 38 -105 66
-199 81 -278 22 -110 29 -369 14 -486 -11 -93 -48 -251 -73 -314 -128 -329
-317 -571 -587 -755 -116 -78 -124 -83 -235 -132 -268 -118 -571 -159 -845
-115 -158 26 -164 27 -235 52 -33 12 -76 26 -95 33 -56 18 -254 119 -263 134
-4 7 -13 13 -18 13 -16 0 -146 101 -228 177 -41 37 -105 109 -142 158 -38 50
-74 95 -79 102 -6 7 -10 15 -10 19 0 4 -7 15 -15 24 -16 18 -105 196 -124 250
-7 19 -17 44 -22 55 -15 37 -59 230 -69 305 -14 110 -12 312 5 413 30 182 106
407 172 507 13 19 23 38 23 43 0 11 89 141 131 192 124 150 345 329 495 400
161 76 345 134 489 154 123 17 394 5 525 -23z"/>
<path d="M1545 3195 c-71 -12 -214 -47 -255 -63 -8 -3 -21 -4 -29 -3 -8 1 -10
-2 -5 -10 5 -9 2 -10 -9 -6 -10 3 -17 2 -17 -3 0 -6 -9 -10 -20 -10 -25 0 -70
-21 -70 -32 0 -5 -4 -6 -10 -3 -5 3 -10 1 -10 -4 0 -6 -8 -11 -19 -11 -27 0
-101 -42 -145 -82 -11 -10 -23 -18 -27 -18 -27 0 -224 -188 -289 -275 -25 -33
-48 -62 -51 -65 -10 -9 -89 -146 -89 -155 0 -5 -6 -16 -14 -24 -17 -21 -81
-188 -100 -266 -23 -91 -46 -269 -46 -354 1 -167 65 -451 129 -564 11 -20 21
-39 20 -42 0 -8 91 -166 102 -175 3 -3 12 -15 21 -28 29 -42 93 -116 153 -175
65 -65 196 -167 212 -167 6 0 16 -7 24 -16 23 -27 190 -108 246 -118 13 -3 49
-14 80 -25 149 -51 344 -75 516 -64 l98 6 -7 66 c-3 36 -12 84 -19 106 -29 90
-53 309 -36 320 6 3 11 2 11 -3 0 -5 8 -12 18 -16 9 -3 31 -14 47 -24 17 -10
68 -38 115 -62 47 -24 101 -55 120 -70 33 -24 267 -130 288 -130 5 0 42 22 83
49 150 100 301 262 402 429 47 77 137 280 137 308 0 7 -16 16 -35 20 -39 7
-43 15 -19 35 13 11 14 27 9 96 -8 96 -1 113 50 113 43 0 59 19 44 53 -8 18
-8 30 0 45 30 56 -3 327 -59 487 -85 242 -207 424 -400 598 -168 152 -400 268
-643 322 -100 23 -396 29 -502 10z m-747 -950 c29 -35 28 -59 -5 -85 -50 -39
-142 -5 -143 53 0 10 12 29 26 44 21 21 32 24 62 20 22 -4 46 -17 60 -32z
m569 -87 c2 -13 10 -29 18 -37 13 -13 10 -16 -23 -28 -47 -16 -72 -16 -96 2
-31 24 -102 30 -131 11 -42 -27 -31 -38 33 -32 57 6 57 6 25 -9 -35 -16 -38
-22 -23 -45 8 -12 10 -11 10 8 0 27 16 29 23 2 4 -15 13 -19 41 -18 20 1 42 8
49 16 10 13 9 14 -9 8 -16 -5 -23 -2 -27 13 -4 16 0 19 29 16 32 -2 62 -15 36
-15 -14 0 -16 -36 -3 -44 5 -3 12 -18 15 -32 9 -34 -16 -58 -64 -62 -70 -5
-118 -41 -64 -48 86 -10 114 -17 114 -25 0 -5 -13 -9 -30 -9 -36 0 -39 -16 -5
-32 28 -12 34 -45 10 -54 -20 -8 -111 30 -108 44 2 6 -10 10 -26 10 -39 -1
-49 7 -57 47 -4 21 -11 32 -18 29 -8 -3 -13 7 -14 28 -1 18 -3 56 -4 83 l-3
50 45 -3 c51 -4 46 14 -5 20 -23 2 -29 7 -27 23 10 57 89 109 187 122 68 10
96 -1 102 -39z m-233 -457 c14 -14 50 -37 79 -52 45 -23 52 -30 49 -53 -1 -14
2 -26 7 -26 6 0 8 6 6 13 -4 8 8 12 42 12 36 0 48 -4 48 -15 0 -10 -9 -15 -25
-14 -14 1 -31 -7 -38 -17 -7 -11 -23 -19 -34 -19 -11 0 -26 -6 -32 -14 -8 -11
-24 -12 -64 -7 -59 8 -81 -3 -30 -15 94 -21 186 13 251 90 37 45 37 46 21 71
-9 14 -15 27 -13 30 3 2 27 -8 54 -22 28 -14 96 -43 153 -64 124 -47 152 -67
186 -129 25 -47 26 -47 87 -54 34 -3 89 -6 121 -6 54 0 125 -10 273 -39 40 -8
27 -9 -70 -6 -116 4 -251 17 -327 31 l-38 7 0 -39 c0 -47 -15 -36 -34 27 l-13
44 -7 -30 c-16 -66 -26 -71 -21 -10 5 67 2 64 -25 -27 l-18 -63 -3 85 c-2 85
-2 85 -9 -35 -9 -147 -28 -302 -41 -334 -8 -20 -12 -22 -19 -11 -5 8 -7 17 -5
21 3 4 -13 42 -35 85 -46 90 -45 60 1 -57 26 -64 29 -83 22 -118 -10 -48 -28
-43 -36 10 -6 51 -37 140 -46 134 -9 -5 0 -77 23 -187 19 -90 20 -110 6 -88
-8 12 -10 12 -10 -5 0 -12 -3 -16 -8 -9 -4 6 -17 14 -29 18 -21 7 -23 4 -23
-28 0 -67 -33 -55 -51 19 -46 200 -56 223 -58 132 0 -49 3 -68 14 -75 9 -4 18
-28 21 -54 5 -38 2 -51 -14 -68 -11 -12 -23 -17 -26 -12 -7 12 -86 14 -86 2 0
-5 -7 -7 -15 -4 -9 4 -15 0 -15 -10 0 -18 -15 -21 -25 -6 -10 16 -47 8 -67
-14 -15 -16 -18 -17 -18 -3 0 21 -64 34 -85 17 -11 -9 -15 -9 -15 -1 0 7 -5 9
-10 6 -6 -3 -19 -3 -30 0 -17 6 -20 12 -14 41 6 35 9 87 6 137 -2 27 -2 27
-21 8 -11 -11 -25 -38 -31 -60 -6 -23 -15 -41 -20 -41 -13 0 -13 27 0 35 5 3
7 11 5 18 -3 7 -1 45 3 85 5 39 5 72 2 72 -4 0 -15 -9 -25 -20 -24 -26 -38
-25 -61 4 -10 14 -21 23 -25 21 -15 -10 -37 42 -42 97 -1 9 -4 15 -8 12 -14
-8 -30 56 -28 112 1 43 -4 72 -20 107 -13 27 -24 47 -26 45 -3 -2 0 -34 6 -72
6 -37 9 -69 6 -72 -2 -2 -12 14 -22 36 -22 50 -41 47 -37 -6 l2 -39 -16 38
c-9 20 -22 37 -28 37 -15 0 -42 -55 -51 -104 -4 -20 -11 -38 -15 -41 -13 -8
19 116 44 171 13 28 39 63 59 78 38 30 50 64 31 91 -23 31 -3 57 45 59 34 2
46 -2 59 -20 l17 -22 40 20 c22 11 55 31 73 45 17 13 48 31 67 39 32 13 34 13
28 -3 -3 -10 -10 -23 -15 -30 -16 -21 9 -23 27 -3 14 15 19 39 21 98 2 103 2
101 23 67 10 -16 30 -41 45 -54z m647 -716 l29 7 1 -64 c1 -104 6 -142 24
-194 19 -56 13 -159 -12 -207 -16 -33 -36 -31 -41 3 -3 17 -6 20 -12 10 -6
-10 -9 -3 -8 20 0 19 7 45 14 57 18 29 18 35 -3 59 -10 10 -18 25 -18 32 0 6
-4 12 -9 11 -19 -2 -46 60 -52 118 -4 33 -3 86 0 117 l8 57 24 -16 c17 -11 35
-14 55 -10z"/>
</g>
</svg>
